<svg xmlns="http://www.w3.org/2000/svg" viewBox="0 0 128 128" role="img" aria-label="Futbahl soccer ball">
  <defs>
    <radialGradient id="shell" cx="34%" cy="26%" r="74%"><stop offset="0" stop-color="#fff"/><stop offset="0.72" stop-color="#f8fafc"/><stop offset="1" stop-color="#d7dde2"/></radialGradient>
    <clipPath id="ball-clip"><circle cx="64" cy="64" r="54"/></clipPath>
  </defs>
  <circle cx="64" cy="67" r="55" fill="#020617" opacity="0.2"/><circle cx="64" cy="64" r="55" fill="url(#shell)" stroke="#111827" stroke-width="5"/>
  <g clip-path="url(#ball-clip)" stroke="#374151" stroke-width="2.5" stroke-linejoin="round">
    <path d="M64 36 82 49 75 70 53 70 46 49Z" fill="#111827" stroke="#111827"/><path d="M64 36 64 13M46 49 27 43M53 70 40 88M75 70 88 88M82 49 101 43" fill="none"/>
    <path d="M64 13 49 6 34 17 27 43 46 49 64 36ZM64 13 79 6 94 17 101 43 82 49 64 36ZM27 43 10 51 8 70 22 86 40 88 53 70 46 49ZM101 43 118 51 120 70 106 86 88 88 75 70 82 49ZM40 88 44 108 64 119 84 108 88 88 75 70 53 70Z" fill="#fff"/>
    <path d="M34 17 22 21 10 39 10 51 27 43ZM94 17 106 21 118 39 118 51 101 43ZM22 86 22 101 39 116 44 108 40 88ZM106 86 106 101 89 116 84 108 88 88ZM44 108 39 116 52 124 76 124 89 116 84 108 64 119Z" fill="#111827" stroke="#111827"/>
  </g>
  <ellipse cx="43" cy="31" rx="13" ry="7" fill="#fff" opacity="0.52" transform="rotate(-28 43 31)"/><circle cx="64" cy="64" r="55" fill="none" stroke="#111827" stroke-width="5"/>
</svg>
